HIERARCHY
ROOT Hips
{
  OFFSET 0 0 0
  CHANNELS 6 Xposition Yposition Zposition Zrotation Xrotation Yrotation
  JOINT Spine
  {
    OFFSET 0 10 0
    CHANNELS 3 Zrotation Xrotation Yrotation
    JOINT Neck
    {
      OFFSET 0 30 0
      CHANNELS 3 Zrotation Xrotation Yrotation
      JOINT Head
      {
        OFFSET 0 8 0
        CHANNELS 3 Zrotation Xrotation Yrotation
        End Site
        {
          OFFSET 0 10 0
        }
      }
    }
    JOINT LeftArm
    {
      OFFSET 15 30 0
      CHANNELS 3 Zrotation Xrotation Yrotation
      JOINT LeftForeArm
      {
        OFFSET 25 0 0
        CHANNELS 3 Zrotation Xrotation Yrotation
        JOINT LeftHand
        {
          OFFSET 25 0 0
          CHANNELS 3 Zrotation Xrotation Yrotation
          End Site
          {
            OFFSET 10 0 0
          }
        }
      }
    }
    JOINT RightArm
    {
      OFFSET -15 30 0
      CHANNELS 3 Zrotation Xrotation Yrotation
      JOINT RightForeArm
      {
        OFFSET -25 0 0
        CHANNELS 3 Zrotation Xrotation Yrotation
        JOINT RightHand
        {
          OFFSET -25 0 0
          CHANNELS 3 Zrotation Xrotation Yrotation
          End Site
          {
            OFFSET -10 0 0
          }
        }
      }
    }
  }
  JOINT LeftUpLeg
  {
    OFFSET 10 -10 0
    CHANNELS 3 Zrotation Xrotation Yrotation
    JOINT LeftLeg
    {
      OFFSET 0 -35 0
      CHANNELS 3 Zrotation Xrotation Yrotation
      JOINT LeftToe
      {
        OFFSET 0 -40 0
        CHANNELS 3 Zrotation Xrotation Yrotation
        JOINT LeftToeEnd
        {
          OFFSET 0 0 0
          CHANNELS 3 Zrotation Xrotation Yrotation
          End Site
          {
            OFFSET 0 0 15
          }
        }
      }
    }
  }
  JOINT RightUpLeg
  {
    OFFSET -10 -10 0
    CHANNELS 3 Zrotation Xrotation Yrotation
    JOINT RightLeg
    {
      OFFSET 0 -35 0
      CHANNELS 3 Zrotation Xrotation Yrotation
      JOINT RightToe
      {
        OFFSET 0 -40 0
        CHANNELS 3 Zrotation Xrotation Yrotation
        JOINT RightToeEnd
        {
          OFFSET 0 0 0
          CHANNELS 3 Zrotation Xrotation Yrotation
          End Site
          {
            OFFSET 0 0 15
          }
        }
      }
    }
  }
}
MOTION
Frames:	11
Frame Time:	0.0333333
1.88173 85.4597 -16.5452 5.29372 -2.03133 124.117 6.91025 11.3115 3.49008 -12.2687 -16.8826 -5.84024 15.1983 37.6836 -12.9771 -90.194 26.4397 0.410574 13.5094 -3.06651 -21.1316 -1.10321 8.12049 -1.95725 82.3362 18.9076 2.7762 -17.4338 -4.85819 29.2222 0.461428 0.080083 -0.103326 9.7404 -31.5959 4.37238 -0.0359535 60.9868 -3.72735 3.26194 -13.8269 -5.80595 3.97569e-016 -7.95139e-016 3.18055e-015 7.09442 -8.03215 -4.36877 -0.322553 34.854 2.05232 -6.33188 -22.7306 -3.92763 -3.97569e-016 -8.94531e-015 3.18055e-015 
3.91935 85.2796 -18.1151 5.12429 -2.38401 124.239 7.05046 10.9295 4.20924 -12.5075 -16.7583 -5.69303 15.1893 37.3341 -13.1503 -91.1141 24.404 1.18665 13.2982 -2.93154 -20.7268 -1.19087 10.195 -1.89309 81.4391 19.5261 3.00053 -17.9659 -5.21347 30.3155 0.453852 -0.631254 -0.1152 10.0244 -32.5761 3.63322 -0.56652 53.9934 -3.43465 3.69231 -14.0909 -2.36994 -5.96354e-016 -1.59028e-015 -6.36111e-015 7.5329 -6.17232 -3.65796 -0.294743 34.3775 2.07281 -6.69981 -24.082 -5.30273 -7.95139e-016 -9.74045e-015 9.54166e-015 
5.88698 85.101 -19.7881 4.78155 -2.69186 124.654 7.02044 10.3959 4.26145 -12.3578 -16.9891 -5.55711 14.8524 37.5781 -12.9029 -91.644 22.5925 1.56928 13.0123 -2.7629 -20.1648 -1.18909 9.98484 -1.91072 80.9896 19.5352 3.34348 -18.3428 -5.46533 31.0687 0.459554 -0.704153 -0.10957 9.62702 -33.3194 1.5056 -1.05298 46.3285 -3.23744 3.80437 -12.8793 1.15099 1.59028e-015 -7.95139e-016 3.18055e-015 7.63926 -4.45537 -3.46051 -0.26303 33.8649 2.07589 -7.06416 -25.3047 -6.40243 3.97569e-016 -9.54166e-015 1.59028e-014 
7.84308 84.8722 -21.5437 4.63609 -3.04247 124.952 7.2407 9.89616 4.51323 -12.5992 -16.8109 -5.4927 14.9478 37.4062 -12.9158 -92.2293 21.3624 2.0958 12.8211 -2.6559 -19.7969 -1.20492 9.49085 -1.89228 80.4918 20.1762 3.24695 -18.6777 -5.69707 31.741 0.474983 -0.796843 -0.0847618 9.32474 -34.4968 -1.7737 -1.33596 40.3435 -3.60579 0.429357 -11.4538 2.90188 1.59028e-015 -7.95139e-016 6.36111e-015 7.82318 -2.6285 -3.52717 -0.230856 33.4431 2.04714 -7.39853 -26.3394 -7.5912 7.95139e-016 -9.93923e-015 9.54166e-015 
9.76544 84.6214 -23.3955 4.62076 -3.2992 124.84 7.39316 9.55254 4.95573 -12.4118 -16.8984 -5.30513 14.5943 37.7083 -12.931 -92.602 20.161 2.46363 12.651 -2.56436 -19.4857 -1.1233 10.4699 -1.93181 80.3222 19.726 3.22863 -18.7322 -5.74079 31.881 0.460382 -1.55974 -0.114625 9.4613 -35.8225 -3.23253 -1.36824 37.1309 -3.85158 -2.97566 -11.2074 2.72928 -7.95139e-016 -7.95139e-016 -0 7.84625 -0.733065 -3.32867 -0.216195 33.2399 2.00666 -7.60591 -27.2381 -8.35387 -0 -9.54166e-015 -0 
11.5524 84.4252 -25.2369 4.17513 -3.16657 124.77 6.81737 9.1298 5.12966 -12.2607 -16.7795 -5.29873 14.7437 37.53 -12.9399 -92.8364 19.0356 2.7198 12.5066 -2.48131 -19.2067 -1.1063 11.8448 -1.95792 80.4662 19.5315 3.13866 -18.6882 -5.71041 31.793 0.456898 -1.19763 -0.119174 8.94599 -36.2088 -4.01609 -1.40524 35.8278 -3.89091 -4.73174 -10.8629 2.81298 -7.95139e-016 7.95139e-016 3.18055e-015 7.31902 0.235649 -2.36347 -0.244831 34.287 1.88869 -7.76031 -27.95 -9.11135 7.95139e-016 -9.93923e-015 1.27222e-014 
13.2062 84.157 -27.1385 4.39296 -3.14119 125.05 6.93845 9.25887 5.07298 -12.6169 -16.8956 -5.60886 15.8029 37.6728 -13.584 -93.1282 19.1962 2.92568 12.3327 -2.39474 -18.8705 -1.30088 12.3455 -1.79807 80.8855 18.5632 2.83029 -18.5763 -5.62784 31.5649 0.459335 -0.487375 -0.131273 8.76261 -35.9691 -3.72163 -1.4323 37.1355 -3.81713 -4.64513 -8.21885 0.959835 -7.95139e-016 1.19271e-015 6.36111e-015 7.40062 1.21021 -1.00211 -0.329121 36.2726 1.7469 -7.93465 -28.1859 -10.2167 7.94503e-031 -7.15625e-015 6.36111e-015 
14.9961 84.1645 -29.1589 4.92587 -3.07245 124.961 7.15696 9.4391 5.04493 -12.5192 -16.4369 -5.63218 15.9332 37.3909 -13.6728 -93.229 18.9128 3.00942 12.3305 -2.38659 -18.8439 -1.28069 11.7513 -1.86052 81.448 18.1995 2.16568 -18.4087 -5.50829 31.2213 0.461159 -0.417723 -0.133073 9.07153 -34.3939 -2.261 -1.3118 37.0806 -3.76731 -4.19351 -4.37439 -3.82512 -1.98785e-016 -1.2921e-015 -6.36111e-015 7.69512 1.79241 0.175067 -0.470756 39.2335 1.53434 -7.47214 -26.9983 -10.8513 1.59028e-015 -9.54166e-015 6.36111e-015 
16.8475 84.4284 -31.1846 4.58782 -1.48703 125.19 5.04021 9.72222 4.83786 -11.8208 -16.1091 -5.89323 16.1731 37.3973 -14.1211 -92.5445 18.8596 2.82738 12.2065 -2.3252 -18.6146 -1.30722 11.7895 -1.87927 82.9886 17.3694 1.38256 -18.0695 -5.26413 30.4904 0.464195 0.06419 -0.11183 7.0785 -31.8138 -1.54615 -1.25953 36.1157 -3.61314 -3.06075 -2.94673 -5.9731 1.24141e-031 -7.45443e-016 9.54166e-015 5.97199 0.883968 0.0231488 -0.701449 44.9675 1.21967 -6.15996 -24.8912 -10.2983 3.18055e-015 -6.36111e-015 3.18055e-015 
18.5977 84.7825 -33.322 4.48931 -0.188831 126.473 3.89525 9.81691 3.55853 -11.7358 -15.5594 -6.27827 16.6422 37.6117 -14.3545 -91.9996 19.212 2.74901 12.2011 -2.32474 -18.6104 -1.17836 11.9466 -1.97662 84.4088 16.1585 0.400386 -17.6063 -4.95493 29.5502 0.467836 1.14053 -0.0963769 5.29945 -29.4996 -0.295611 -1.22414 36.2137 -3.45441 -1.50687 -4.02241 -8.29298 9.93923e-017 -7.45443e-016 3.18055e-015 4.1401 -1.42094 -1.83239 -1.08178 52.2317 0.967858 -3.65948 -20.4163 -8.06943 3.18055e-015 -6.36111e-015 6.36111e-015 
20.2987 85.1738 -35.3647 4.39388 0.829236 126.912 2.94644 10.1169 3.11779 -11.344 -15.4966 -6.51121 16.4853 37.9038 -14.5951 -91.2828 20.5449 2.3794 12.1619 -2.32046 -18.5517 -1.2805 11.7209 -1.83248 85.663 15.2234 -0.684662 -17.2134 -4.69923 28.75 0.469464 1.39197 -0.0882401 3.76091 -26.9511 0.307594 -1.20529 36.0083 -3.31629 -0.325532 -5.26668 -9.80065 9.93923e-017 -8.07563e-016 3.18055e-015 1.93576 -5.63536 -4.09086 -1.55723 60.1542 0.643054 -0.972077 -13.7332 -5.49964 3.18055e-015 2.38542e-015 6.36111e-015 
